<svg data-name="Layer 2" xmlns="http://www.w3.org/2000/svg" xmlns:xlink="http://www.w3.org/1999/xlink" viewBox="0 0 256 256"><defs><linearGradient id="a" x1="38.61" y1="130" x2="168.72" y2="130" gradientTransform="matrix(1 0 0 -1 0 258)" gradientUnits="userSpaceOnUse"><stop offset="0" stop-color="#a7a9ac"/><stop offset="0" stop-color="#aaacaf"/><stop offset=".11" stop-color="#c9cacc"/><stop offset=".2" stop-color="#dfe0e1"/><stop offset=".29" stop-color="#ecedee"/><stop offset=".35" stop-color="#f1f2f2"/><stop offset=".47" stop-color="#eaebec"/><stop offset=".66" stop-color="#d7d8da"/><stop offset=".89" stop-color="#b8babc"/><stop offset="1" stop-color="#a7a9ac"/></linearGradient><linearGradient id="b" x1="39.54" y1="141.86" x2="167.23" y2="141.86" xlink:href="#a"/><linearGradient id="c" x1="40.4" y1="118.14" x2="168.09" y2="118.14" xlink:href="#a"/></defs><g data-name="Layer 1"><circle cx="128" cy="128" r="128"/><path d="m53.7 109.53 15.63 10.59H53.7v39.41h15.63V96.47H53.7v13.06Z" style="fill:url(#a)"/><path d="M159.53 112.21c2.2 0 3.92 1.72 3.92 3.93v9.1l15.67 10.57V112.2c0-8.61-7.1-15.74-15.67-15.74H69.68l23.5 15.74h66.59-.24Z" style="fill:url(#b)"/><path d="M112.45 143.79c-2.2 0-3.92-1.72-3.92-3.93v-9.1l-15.67-10.57v23.61c0 8.61 7.1 15.74 15.67 15.74h93.77l-23.5-15.74h-66.59.24Z" style="fill:url(#c)"/></g></svg>