<svg version="1.1" id="Layer_1" xmlns="http://www.w3.org/2000/svg" x="0" y="0" viewBox="0 0 504.4 504.4" xml:space="preserve"><style>.st1{fill:#06070a}</style><circle cx="252.2" cy="252.2" r="251.8" fill="#fff"/><path class="st1" d="M269.2 492.2h-17c-132.5 0-240-107.5-240-240s107.5-240 240-240 240 107.5 240 240c0 11.9-.9 23.5-2.5 35h-33.6c1.9-11.4 2.9-23 2.9-35C459 138 366.4 45.4 252.2 45.4S45.4 138 45.4 252.2 138 459 252.2 459h123a239.71 239.71 0 0 1-106 33.2z"/><path class="st1" d="M421.2 423.4h-169c-94.6 0-171.3-76.7-171.3-171.3S157.6 80.9 252.2 80.9s171.3 76.7 171.3 171.3c0 12-1.2 23.7-3.6 35h-34.1c2.9-11.2 4.5-22.9 4.5-35 0-76.3-61.8-138.1-138.1-138.1s-138.1 61.8-138.1 138.1 61.8 138.1 138.1 138.1h197.1c-8.4 11.8-17.8 23-28.1 33.1z"/><path class="st1" d="M469.9 354.7H252.2c-56.6 0-102.5-45.9-102.5-102.5s45.9-102.5 102.5-102.5 102.5 45.9 102.5 102.5c0 12.3-2.2 24-6.1 35h-36.5c6-10.3 9.4-22.2 9.4-35 0-38.3-31-69.3-69.3-69.3s-69.3 31-69.3 69.3 31 69.3 69.3 69.3h230.5c-3.5 11.5-7.8 22.5-12.8 33.2z"/></svg>