<svg id="Layer_2" data-name="Layer 2" xmlns="http://www.w3.org/2000/svg" viewBox="0 0 256 256"><defs><style>.cls-1,.cls-2{fill:#fff}.cls-2,.cls-3{fill-rule:evenodd}.cls-3{fill:#964e22}</style></defs><g id="Layer_1-2" data-name="Layer 1"><circle cx="128" cy="128" r="128" style="fill:#ffd4be"/><rect x="38.67" y="36.99" width="178.65" height="182.02" rx="52.45" ry="52.45" style="fill:#964e22"/><path class="cls-1" d="M66.57 114.87h5.86v4.73h-5.86zM66.57 121.68h5.86v19.38h-5.86z"/><path class="cls-2" d="M170.89 132.91h-13.16c.24 2.06 1.74 3.64 4.63 3.64 1.76.05 3.47-.66 4.69-1.96l3.51 3.67c-1.8 2.07-4.65 3.34-8.18 3.34-6.72 0-10.67-3.96-10.67-10.34 0-5.9 3.81-10.18 9.86-10.18s9.55 3.76 9.55 9.38c.02.83-.05 1.66-.21 2.48Z"/><path class="cls-3" d="M165.27 129.2c-.13-2.01-1.44-3.44-3.69-3.44s-3.56 1.42-3.84 3.44h7.53Z"/><path class="cls-2" d="M180.87 141.57c-2.9 0-6.44-.77-9.05-3.32l3.34-3.67a8.335 8.335 0 0 0 5.69 2.33c2.04 0 2.93-.54 2.93-1.37 0-.63-.44-.99-1.56-1.33-.97-.3-2.51-.56-3.81-.95-2.81-.84-5.61-2.04-5.61-6.1 0-3.76 3-6.07 8.01-6.07 2.78 0 5.91.58 8.54 2.96l-3.38 3.58c-1.48-1.45-3.54-1.98-5.21-1.98-1.51 0-2.34.54-2.34 1.29 0 .63.44.99 1.58 1.37.99.32 2.63.64 3.91 1.01 2.7.78 5.5 1.95 5.5 5.82.01 4.32-3.56 6.42-8.55 6.42ZM90.58 122.44a7.485 7.485 0 0 0-5.96-2.68c-2.47 0-3.76.91-3.76 2.2 0 1.75 1.95 2.36 5.69 3.43 4.11 1.18 8.77 2.52 8.77 8.05s-4.5 8.09-10.19 8.09c-4.8 0-8.72-1.4-11.24-4.88l4.38-3.71c1.67 2.3 4.21 3.23 6.79 3.23 3.07 0 4.19-1.09 4.19-2.27 0-1.72-1.78-2.14-6.09-3.36-4.43-1.26-8.28-3.01-8.28-8.37 0-4.7 3.77-7.77 9.93-7.77 3.91 0 7.5 1.06 10.09 4.36l-4.33 3.66ZM149.48 121.31c1.12-.04 2.2.42 2.96 1.27l-2.35 5.06c-.58-.45-1.3-.68-2.03-.67-1.49 0-2.78 1.32-2.78 3.71v10.38h-5.91v-19.37h5.81v2.72c1.04-1.86 2.37-3.09 4.3-3.09ZM115.32 127.99v13.06h-5.84V130.1c0-2.1-1.1-3.39-3.05-3.39s-3.28 1.24-3.28 3.46v10.88H97.3v-26.19h5.85v9.42c1.37-1.9 3.55-3.02 5.86-2.99 3.57 0 6.31 2.39 6.31 6.7ZM137.46 136.56v4.11c-1.09.43-2.26.65-3.43.64-1.61 0-3.23-.52-3.99-2.43-1.27 1.45-3.63 2.57-6.32 2.57-3.91 0-6.43-2.04-6.43-5.94s3.02-6.09 7.68-6.09c1.55 0 3.09.2 4.59.58v-.63c0-2.18-1.23-3.47-3.78-3.47-1.72.05-3.37.72-4.65 1.9l-3.2-3.71c1.91-1.77 5.01-3.08 8.59-3.08 5.52 0 8.85 2.71 8.85 7.8v6.79c0 .73.36 1.09 1.13 1.09.33 0 .66-.04.97-.12h-.01Z"/><path class="cls-3" d="M129.56 133.24c-1.07-.27-2.17-.42-3.27-.43-2.01 0-3.01 1.01-3.01 2.4 0 1.31.88 2.26 2.69 2.26 1.91 0 3.59-1.17 3.59-2.95v-1.28Z"/></g></svg>