<svg xmlns="http://www.w3.org/2000/svg" xmlns:xlink="http://www.w3.org/1999/xlink" width="339" zoomAndPan="magnify" viewBox="0 0 254.25 221.249992" height="295" preserveAspectRatio="xMidYMid meet" version="1.0"><defs><clipPath id="c822e5d072"><path d="M 0.0546875 0 L 253.445312 0 L 253.445312 220.503906 L 0.0546875 220.503906 Z M 0.0546875 0 " clip-rule="nonzero"/></clipPath><clipPath id="e678bc9332"><path d="M 12.742188 17.566406 L 240.71875 17.566406 L 240.71875 215.515625 L 12.742188 215.515625 Z M 12.742188 17.566406 " clip-rule="nonzero"/></clipPath></defs><g clip-path="url(#c822e5d072)"><path fill="#ffffff" d="M 0.0546875 0 L 253.445312 0 L 253.445312 220.503906 L 0.0546875 220.503906 Z M 0.0546875 0 " fill-opacity="1" fill-rule="nonzero"/><path fill="#50af95" d="M 0.0546875 0 L 253.445312 0 L 253.445312 220.503906 L 0.0546875 220.503906 Z M 0.0546875 0 " fill-opacity="1" fill-rule="nonzero"/></g><g clip-path="url(#e678bc9332)"><path fill="#50af95" d="M 54.484375 18.445312 L 12.917969 105.625 C 12.753906 105.957031 12.707031 106.304688 12.773438 106.667969 C 12.839844 107.03125 13.007812 107.34375 13.277344 107.59375 L 125.542969 215.007812 C 125.703125 215.160156 125.886719 215.277344 126.089844 215.359375 C 126.296875 215.441406 126.507812 215.480469 126.730469 215.480469 C 126.949219 215.480469 127.164062 215.441406 127.367188 215.359375 C 127.574219 215.277344 127.757812 215.160156 127.914062 215.007812 L 240.179688 107.601562 C 240.453125 107.347656 240.621094 107.039062 240.6875 106.675781 C 240.753906 106.3125 240.707031 105.964844 240.542969 105.628906 L 198.976562 18.453125 C 198.839844 18.152344 198.632812 17.90625 198.355469 17.738281 C 198.078125 17.558594 197.773438 17.472656 197.445312 17.472656 L 56.027344 17.472656 C 55.699219 17.46875 55.394531 17.554688 55.113281 17.730469 C 54.832031 17.90625 54.625 18.144531 54.484375 18.445312 Z M 54.484375 18.445312 " fill-opacity="1" fill-rule="evenodd"/></g><path fill="#ffffff" d="M 141.152344 114.578125 C 140.347656 114.636719 136.183594 114.886719 126.894531 114.886719 C 119.507812 114.886719 114.261719 114.664062 112.421875 114.578125 C 83.867188 113.324219 62.558594 108.359375 62.558594 102.417969 C 62.558594 96.476562 83.867188 91.519531 112.421875 90.246094 L 112.421875 109.632812 C 114.289062 109.769531 119.632812 110.082031 127.023438 110.082031 C 135.886719 110.082031 140.328125 109.714844 141.125 109.640625 L 141.125 90.261719 C 169.617188 91.527344 190.882812 96.488281 190.882812 102.417969 C 190.882812 108.347656 169.625 113.308594 141.125 114.570312 Z M 141.152344 88.253906 L 141.152344 70.90625 L 180.914062 70.90625 L 180.914062 44.453125 L 72.660156 44.453125 L 72.660156 70.90625 L 112.414062 70.90625 L 112.414062 88.25 C 80.101562 89.730469 55.800781 96.121094 55.800781 103.78125 C 55.800781 111.4375 80.101562 117.820312 112.414062 119.3125 L 112.414062 174.902344 L 141.148438 174.902344 L 141.148438 119.289062 C 173.386719 117.808594 197.644531 111.425781 197.644531 103.773438 C 197.644531 96.121094 173.40625 89.738281 141.148438 88.25 Z M 141.152344 88.253906 " fill-opacity="1" fill-rule="evenodd"/></svg>
